<?xml version="1.0" standalone="no"?>
<!DOCTYPE svg PUBLIC "-//W3C//DTD SVG 20010904//EN"
 "http://www.w3.org/TR/2001/REC-SVG-20010904/DTD/svg10.dtd">
<svg version="1.0" xmlns="http://www.w3.org/2000/svg"
 width="1338.000000pt" height="858.000000pt" viewBox="0 0 1338.000000 858.000000"
 preserveAspectRatio="xMidYMid meet">

<g transform="translate(0.000000,858.000000) scale(0.100000,-0.100000)"
fill="#000000" stroke="none">
<path d="M6598 8539 c-24 -24 -64 -72 -90 -105 -35 -46 -60 -68 -101 -88 -64
-30 -87 -55 -152 -165 -59 -101 -86 -186 -86 -271 0 -80 18 -132 71 -208 52
-74 60 -121 31 -186 -47 -108 -38 -158 45 -235 92 -86 87 -34 74 -765 -6 -352
-13 -656 -16 -673 -3 -18 -10 -33 -17 -33 -23 0 -439 -68 -443 -73 -4 -4 168
-236 232 -311 44 -52 50 -85 25 -134 -80 -157 -327 -176 -463 -35 -40 41 -83
126 -93 186 l-7 37 -139 0 c-77 0 -139 -4 -139 -9 0 -4 23 -75 51 -157 67
-197 127 -308 222 -410 l29 -32 -29 -19 c-87 -62 -210 -103 -369 -124 l-97
-13 34 -25 c99 -74 212 -197 450 -494 16 -20 17 -19 44 34 96 188 230 323 401
400 35 16 66 29 69 29 7 0 6 -501 -1 -581 l-7 -66 -66 -16 c-93 -22 -167 -51
-234 -91 l-57 -35 -52 75 -52 74 -241 0 -242 0 -75 -59 -74 -58 -80 58 -79 58
-267 1 -266 0 -38 -52 c-21 -29 -41 -57 -45 -61 -3 -5 -34 5 -67 22 -82 42
-206 76 -326 91 -167 21 -454 4 -577 -35 -18 -6 -19 1 -19 102 l0 108 -153
153 -152 152 -260 0 -260 0 -153 -153 -152 -152 0 -106 0 -106 -50 13 c-88 23
-198 34 -333 34 -375 0 -650 -114 -790 -328 -85 -130 -117 -246 -117 -420 l0
-107 -375 -314 c-292 -245 -375 -320 -375 -337 0 -18 87 -100 370 -351 277
-246 370 -333 370 -350 0 -45 51 -180 90 -240 80 -121 220 -217 380 -258 100
-26 324 -31 440 -10 73 13 151 16 339 15 l244 -1 28 27 29 28 28 -27 28 -27
259 0 259 0 56 55 56 55 64 -34 c260 -138 759 -143 1039 -11 40 19 74 35 76
35 2 0 17 -23 35 -50 l32 -50 260 0 259 0 80 61 80 61 84 -61 83 -61 284 0
284 0 17 28 c9 15 25 37 35 50 l18 23 74 -35 c68 -31 136 -53 213 -70 l27 -6
0 -372 c0 -256 4 -383 12 -410 12 -40 150 -197 381 -433 l97 -100 53 55 c28
31 129 137 224 237 94 99 180 196 190 214 16 31 18 68 21 426 l3 393 262 0
262 0 153 153 152 152 0 453 0 452 69 0 69 0 4 -348 c4 -344 4 -348 31 -427
14 -44 40 -102 58 -130 88 -142 251 -254 444 -306 112 -31 359 -33 455 -5 36
10 74 18 85 17 11 -2 115 -5 230 -7 l210 -5 53 54 52 53 77 -37 c138 -68 300
-99 513 -99 300 0 530 71 680 208 l65 59 140 -118 140 -118 315 0 315 0 150
128 151 128 13 84 c8 46 17 92 20 102 4 10 247 195 541 410 372 273 536 398
538 413 2 15 -93 118 -392 420 l-394 400 19 105 c11 57 18 112 17 121 -2 10
-70 99 -153 198 l-149 180 -249 0 -249 0 -88 -75 -88 -75 -86 75 -85 75 -253
0 -253 1 -51 -57 -50 -56 -50 25 c-124 63 -305 97 -514 97 -127 0 -284 -17
-357 -39 l-33 -10 0 107 0 107 -153 153 -152 152 -260 0 -260 0 -153 -153
-152 -152 0 -81 0 -81 -82 -6 c-96 -7 -198 -36 -280 -79 l-58 -31 -57 31
c-102 53 -185 74 -325 79 -95 4 -150 1 -223 -12 -71 -13 -100 -14 -108 -6 -7
7 -92 11 -264 11 l-253 0 0 320 0 320 56 -25 c150 -66 296 -200 374 -344 25
-45 50 -88 55 -96 8 -11 62 44 246 248 l236 262 -46 8 c-139 24 -239 52 -310
88 -112 56 -113 59 -58 118 55 59 110 143 148 226 32 72 109 290 109 311 0 12
-24 14 -136 12 l-137 -3 -17 -62 c-9 -34 -25 -74 -35 -90 -115 -182 -359 -213
-489 -62 -27 32 -36 52 -36 79 0 44 8 56 158 248 62 79 112 147 112 151 0 5
-103 25 -230 46 l-230 38 0 141 c0 78 -5 375 -10 661 -6 340 -6 532 0 556 6
23 28 53 56 79 97 90 116 154 74 260 -33 84 -28 118 29 183 57 66 74 110 74
192 0 123 -54 266 -139 365 -25 30 -53 65 -61 77 -10 14 -25 23 -42 23 -33 0
-41 6 -71 50 -13 19 -40 53 -59 75 -20 22 -48 56 -63 74 l-27 35 -43 -45z
m178 -332 c98 -50 165 -155 163 -256 0 -45 -17 -106 -18 -70 -1 9 -10 46 -21
82 -39 126 -141 205 -250 195 -28 -3 -53 -8 -56 -11 -3 -3 0 -23 6 -46 6 -22
10 -95 9 -162 l-1 -121 -34 6 c-19 3 -51 9 -71 13 l-36 6 29 -37 c16 -20 46
-48 67 -62 40 -27 57 -56 49 -87 -4 -17 -11 -18 -50 -13 -157 21 -268 211
-222 378 24 85 118 181 204 208 58 18 175 6 232 -23z m59 -692 c14 -13 25 -33
25 -45 0 -20 -5 -20 -225 -20 l-225 0 0 25 c0 14 9 34 20 45 19 19 33 20 200
20 179 0 181 0 205 -25z m8 -139 c3 -8 -5 -23 -17 -35 -21 -20 -33 -21 -193
-21 -157 0 -171 2 -188 20 -15 16 -15 22 -5 35 18 21 395 23 403 1z m-192
-312 c52 -42 96 -78 98 -79 1 -2 0 -8 -3 -14 -7 -11 -82 8 -152 39 -35 15 -44
25 -58 66 -13 38 -13 49 -4 56 20 12 20 12 119 -68z m4 -258 c59 -47 93 -82
87 -88 -12 -12 -164 37 -184 59 -24 26 -38 89 -25 102 15 15 13 17 122 -73z
m0 -253 c58 -47 91 -81 86 -86 -6 -6 -43 1 -95 17 -88 27 -99 36 -117 99 -20
70 13 63 126 -30z m-6 -249 c121 -101 120 -111 -5 -73 -81 24 -102 42 -114 94
-18 78 6 74 119 -21z m4 -258 c48 -38 87 -75 87 -83 0 -7 -2 -13 -4 -13 -16 0
-165 52 -179 62 -23 17 -40 87 -25 105 13 15 14 15 121 -71z m327 -475 c0 -6
-4 -12 -9 -16 -5 -3 -28 -33 -50 -66 -48 -72 -52 -107 -21 -213 11 -38 18 -71
16 -74 -4 -3 -94 124 -172 243 l-39 60 -70 3 c-38 1 -75 -1 -80 -5 -6 -5 -54
-73 -108 -153 -53 -80 -103 -153 -111 -162 -13 -17 -42 -26 -34 -10 78 157 86
186 68 253 -8 31 -28 60 -65 97 l-52 52 364 0 c220 0 363 -4 363 -9z m-251
-400 c60 -91 92 -147 89 -159 -3 -10 -47 -80 -98 -156 -76 -115 -94 -136 -105
-125 -37 39 -176 276 -172 294 5 27 178 296 187 290 3 -2 48 -67 99 -144z
m-496 -155 c45 -19 65 -44 227 -276 79 -113 151 -215 161 -228 17 -22 18 -22
201 235 102 142 196 264 210 272 23 13 33 12 94 -8 91 -30 241 -101 301 -142
121 -83 243 -231 243 -296 0 -17 -9 -38 -20 -48 -19 -17 -21 -16 -93 52 -88
84 -136 117 -242 170 -122 62 -239 99 -269 85 -27 -12 -42 -30 -250 -305
l-157 -208 -42 52 c-23 29 -112 145 -197 258 -176 233 -167 227 -278 190 -168
-56 -290 -126 -399 -231 -63 -62 -74 -68 -92 -59 -11 7 -24 24 -27 38 -15 58
99 211 217 291 90 61 322 168 372 171 4 1 22 -5 40 -13z m197 -701 l120 -135
0 -75 0 -75 -130 0 -130 0 0 128 c0 121 9 292 16 292 2 0 57 -61 124 -135z
m526 -402 c-2 -3 -16 3 -30 12 l-26 17 0 220 0 219 28 27 27 27 3 -259 c1
-142 0 -261 -2 -263z m-3966 -958 l0 -1275 -255 0 -255 0 0 1275 0 1275 255 0
255 0 0 -1275z m6610 0 l0 -1275 -189 0 -189 0 -21 34 -21 34 -78 -39 c-237
-120 -582 -30 -667 174 -13 32 -15 142 -15 849 0 800 0 812 21 854 57 118 211
183 402 171 90 -6 220 -38 232 -57 21 -33 25 12 25 260 l0 270 250 0 250 0 0
-1275z m-7565 781 c151 -41 251 -120 297 -234 l23 -57 3 -882 3 -883 -226 0
-225 0 0 37 0 37 -27 -27 c-41 -38 -90 -55 -198 -69 -163 -21 -333 13 -417 82
-20 17 -49 56 -65 88 l-28 57 -3 273 c-4 304 1 338 59 426 54 80 206 186 445
310 50 25 110 62 132 82 l42 36 0 188 c0 209 -4 224 -67 236 -27 5 -37 1 -62
-23 -44 -45 -55 -115 -47 -315 l6 -168 -246 0 -245 0 3 263 c3 259 3 263 29
318 61 129 167 198 363 235 97 18 369 12 451 -10z m1848 13 c40 -6 104 -23
142 -36 121 -44 186 -100 234 -203 l26 -55 3 -452 3 -453 -341 0 -341 0 3
-266 3 -266 28 -24 c31 -26 54 -30 90 -13 43 19 47 46 47 284 l0 225 255 0
255 0 0 -244 c0 -213 -2 -252 -19 -306 -52 -165 -187 -251 -441 -281 -245 -28
-489 22 -607 125 -49 43 -98 137 -113 215 -6 33 -10 314 -10 715 0 558 3 671
16 726 50 213 235 317 567 319 71 1 161 -4 200 -10z m2797 -14 c166 -44 272
-130 310 -252 19 -61 20 -92 20 -499 l0 -434 -341 0 -340 0 3 -266 3 -266 29
-25 c24 -20 36 -24 65 -19 69 11 71 20 71 282 l0 234 255 0 255 0 0 -248 c0
-276 -6 -314 -63 -398 -69 -104 -207 -165 -417 -186 -289 -29 -540 44 -637
186 -70 102 -68 81 -68 866 0 667 1 708 19 760 53 154 164 237 365 275 103 20
380 14 471 -10z m1412 5 c81 -25 147 -69 183 -120 49 -71 55 -117 55 -437 l0
-293 -260 0 -260 0 0 250 c0 237 -1 251 -20 270 -24 24 -87 27 -116 6 -18 -14
-19 -38 -24 -873 l-5 -858 -255 0 -255 0 0 1030 0 1030 255 0 255 0 3 -27 3
-28 40 20 c100 52 287 65 401 30z m2480 -9 c137 -36 225 -93 275 -178 49 -84
53 -125 53 -575 l0 -418 -337 -2 -338 -3 0 -268 0 -269 28 -24 c37 -31 81 -31
112 1 l25 24 0 236 0 235 255 0 255 0 0 -238 c0 -183 -4 -252 -15 -297 -48
-181 -191 -271 -473 -295 -293 -26 -533 44 -629 184 -70 102 -68 81 -68 866 0
667 1 708 19 760 55 158 168 240 381 276 115 19 357 12 457 -15z m-5587 -238
c44 -139 83 -254 86 -258 3 -3 32 97 64 222 32 126 62 243 67 261 l9 32 239 0
c132 0 240 -4 240 -9 0 -5 -74 -226 -165 -492 -91 -266 -165 -490 -165 -499 0
-11 327 -883 395 -1053 7 -16 -9 -17 -275 -15 l-282 3 -84 269 c-46 148 -85
270 -87 272 -2 2 -39 -119 -83 -269 l-79 -272 -253 -3 c-140 -1 -252 2 -252 6
0 5 88 252 195 548 l195 538 -186 470 c-103 258 -189 478 -192 488 -4 18 8 18
264 16 l268 -3 81 -252z m6495 250 c0 -20 161 -1142 168 -1167 5 -20 31 141
85 535 43 310 81 581 84 602 l6 37 248 0 c151 0 249 -4 249 -10 0 -13 -360
-2022 -366 -2042 -5 -17 -28 -18 -310 -18 -167 0 -304 2 -304 5 0 2 -81 454
-180 1002 -99 549 -183 1013 -186 1031 l-6 32 256 0 c141 0 256 -3 256 -7z
m1382 -660 c239 -241 439 -448 442 -460 4 -12 3 -31 -3 -41 -15 -29 -1111
-834 -1129 -830 -36 7 -21 35 43 82 35 26 67 51 70 56 7 11 255 1396 255 1423
0 15 -27 49 -75 97 -74 73 -93 110 -57 110 10 0 202 -185 454 -437z m-11744
237 c1 -9 -52 -61 -133 -129 l-135 -113 0 -96 0 -96 62 -63 61 -62 -25 -38
c-49 -74 -58 -93 -85 -170 -27 -76 -27 -85 -31 -339 l-4 -261 140 -124 c99
-88 141 -131 141 -146 1 -14 -5 -23 -14 -23 -24 0 -945 820 -951 847 -4 13 -4
29 -1 36 9 24 940 798 956 795 9 -2 17 -10 19 -18z m5830 -2390 c-3 -308 -4
-316 -26 -359 -24 -44 -106 -131 -123 -131 -6 0 4 17 21 39 61 75 64 96 68
524 l3 387 27 14 27 14 3 -86 c2 -48 2 -229 0 -402z m-398 23 c0 -192 -3 -405
-7 -475 l-6 -127 -86 74 c-47 40 -105 91 -128 113 l-43 39 0 361 0 362 135 0
135 0 0 -347z"/>
<path d="M8949 3411 l-29 -30 2 -680 3 -680 22 -22 c29 -30 97 -30 126 0 l22
22 3 672 c2 498 -1 679 -9 700 -22 54 -95 63 -140 18z"/>
<path d="M1807 2585 c-21 -8 -51 -24 -68 -35 -55 -40 -59 -58 -59 -298 0 -207
1 -221 21 -246 27 -34 98 -37 129 -6 19 19 20 33 20 310 0 160 -1 290 -2 289
-2 0 -20 -7 -41 -14z"/>
<path d="M3653 3429 c-38 -19 -43 -60 -43 -315 l0 -244 85 0 86 0 -3 265 c-3
293 -3 292 -69 300 -19 3 -44 0 -56 -6z"/>
<path d="M6363 3416 l-28 -24 -3 -261 -3 -261 85 0 86 0 0 260 0 261 -25 24
c-31 32 -75 32 -112 1z"/>
<path d="M10249 3411 l-29 -29 0 -256 0 -256 85 0 85 0 0 260 0 261 -25 24
c-34 35 -78 33 -116 -4z"/>
<path d="M8510 5464 l-50 -47 0 -148 0 -149 -145 0 -146 0 -49 -46 -50 -47 0
-116 0 -117 48 -47 48 -47 147 0 147 0 0 -148 0 -148 48 -47 48 -47 115 0 115
0 47 48 47 48 0 147 0 147 148 0 148 0 47 48 47 48 0 110 0 110 -53 52 -53 52
-142 0 -142 0 0 143 0 143 -53 52 -53 52 -107 0 -108 0 -49 -46z m280 -249 l0
-195 195 0 195 0 0 -110 0 -110 -195 0 -195 0 0 -195 0 -195 -115 0 -115 0 0
195 0 195 -195 0 -195 0 0 110 0 110 195 0 195 0 0 195 0 195 115 0 115 0 0
-195z"/>
</g>
</svg>
